# Blender v2.73 (sub 0) OBJ File: 'buoyStandard.blend'
# www.blender.org
o Cylinder_Cylinder.002
v 0.000000 -0.041218 -0.229284
v 0.000000 0.073687 -0.229284
v 0.044631 -0.041218 -0.224878
v 0.044631 0.073687 -0.224878
v 0.087546 -0.041218 -0.211830
v 0.087546 0.073687 -0.211830
v 0.127097 -0.041218 -0.190642
v 0.127097 0.073687 -0.190642
v 0.161764 -0.041218 -0.162128
v 0.161764 0.073687 -0.162128
v 0.190214 -0.041218 -0.127383
v 0.190214 0.073687 -0.127383
v 0.211354 -0.041218 -0.087743
v 0.211354 0.073687 -0.087743
v 0.224373 -0.041218 -0.044731
v 0.224373 0.073687 -0.044731
v 0.228768 -0.041218 -0.000000
v 0.228768 0.073687 -0.000000
v 0.224373 -0.041218 0.044731
v 0.224373 0.073687 0.044731
v 0.211354 -0.041218 0.087743
v 0.211354 0.073687 0.087743
v 0.190214 -0.041218 0.127383
v 0.190214 0.073687 0.127383
v 0.161764 -0.041218 0.162128
v 0.161764 0.073687 0.162128
v 0.127097 -0.041218 0.190642
v 0.127097 0.073687 0.190642
v 0.087546 -0.041218 0.211830
v 0.087546 0.073687 0.211830
v 0.044630 -0.041218 0.224877
v 0.044630 0.073687 0.224877
v -0.000000 -0.041218 0.229283
v -0.000000 0.073687 0.229283
v -0.044631 -0.041218 0.224877
v -0.044631 0.073687 0.224877
v -0.087546 -0.041218 0.211830
v -0.087546 0.073687 0.211830
v -0.127097 -0.041218 0.190642
v -0.127097 0.073687 0.190642
v -0.161764 -0.041218 0.162127
v -0.161764 0.073687 0.162127
v -0.190214 -0.041218 0.127383
v -0.190214 0.073687 0.127383
v -0.211354 -0.041218 0.087743
v -0.211354 0.073687 0.087743
v -0.224373 -0.041218 0.044731
v -0.224373 0.073687 0.044731
v -0.228768 -0.041218 -0.000000
v -0.228768 0.073687 -0.000000
v -0.224373 -0.041218 -0.044731
v -0.224373 0.073687 -0.044731
v -0.211354 -0.041218 -0.087743
v -0.211354 0.073687 -0.087743
v -0.190214 -0.041218 -0.127384
v -0.190214 0.073687 -0.127384
v -0.161763 -0.041218 -0.162128
v -0.161763 0.073687 -0.162128
v -0.127097 -0.041218 -0.190643
v -0.127097 0.073687 -0.190643
v -0.087545 -0.041218 -0.211831
v -0.087545 0.073687 -0.211831
v -0.044630 -0.041218 -0.224878
v -0.044630 0.073687 -0.224878
v 0.000000 0.073687 -0.127406
v 0.024800 0.073687 -0.124958
v 0.048647 0.073687 -0.117708
v 0.070624 0.073687 -0.105934
v 0.089887 0.073687 -0.090090
v 0.105696 0.073687 -0.070783
v 0.117443 0.073687 -0.048756
v 0.124677 0.073687 -0.024856
v 0.127119 0.073687 -0.000000
v 0.124677 0.073687 0.024855
v 0.117443 0.073687 0.048756
v 0.105696 0.073687 0.070783
v 0.089887 0.073687 0.090089
v 0.070624 0.073687 0.105934
v 0.048647 0.073687 0.117707
v 0.024800 0.073687 0.124957
v 0.000000 0.073687 0.127405
v -0.024800 0.073687 0.124957
v -0.048647 0.073687 0.117707
v -0.070624 0.073687 0.105934
v -0.089887 0.073687 0.090089
v -0.105696 0.073687 0.070782
v -0.117443 0.073687 0.048756
v -0.124677 0.073687 0.024855
v -0.127119 0.073687 -0.000000
v -0.124677 0.073687 -0.024856
v -0.117443 0.073687 -0.048756
v -0.105696 0.073687 -0.070783
v -0.089887 0.073687 -0.090090
v -0.070624 0.073687 -0.105934
v -0.048646 0.073687 -0.117708
v -0.024800 0.073687 -0.124958
v 0.000000 0.990000 -0.127406
v 0.024800 0.990000 -0.124958
v 0.048647 0.990000 -0.117708
v 0.070624 0.990000 -0.105934
v 0.089887 0.990000 -0.090090
v 0.105696 0.990000 -0.070783
v 0.117443 0.990000 -0.048756
v 0.124677 0.990000 -0.024856
v 0.127119 0.990000 -0.000000
v 0.124677 0.990000 0.024855
v 0.117443 0.990000 0.048756
v 0.105696 0.990000 0.070783
v 0.089887 0.990000 0.090089
v 0.070624 0.990000 0.105934
v 0.048647 0.990000 0.117707
v 0.024800 0.990000 0.124957
v 0.000000 0.990000 0.127405
v -0.024800 0.990000 0.124957
v -0.048647 0.990000 0.117707
v -0.070624 0.990000 0.105934
v -0.089887 0.990000 0.090089
v -0.105696 0.990000 0.070782
v -0.117443 0.990000 0.048756
v -0.124677 0.990000 0.024855
v -0.127119 0.990000 -0.000000
v -0.124677 0.990000 -0.024856
v -0.117443 0.990000 -0.048756
v -0.105696 0.990000 -0.070783
v -0.089887 0.990000 -0.090090
v -0.070624 0.990000 -0.105934
v -0.048646 0.990000 -0.117708
v -0.024800 0.990000 -0.124958
vt 0.922892 0.839390
vt 0.877899 0.784715
vt 0.890181 0.772454
vt 0.807165 0.148988
vt 0.807304 0.465817
vt 0.776628 0.459729
vt 0.668988 0.762549
vt 0.662874 0.731943
vt 0.733414 0.725011
vt 0.867875 0.564014
vt 0.896773 0.575956
vt 0.863385 0.638333
vt 0.974315 0.762549
vt 0.906473 0.742017
vt 0.909856 0.725011
vt 0.720479 0.839390
vt 0.698355 0.817325
vt 0.753130 0.772454
vt 0.805925 0.557926
vt 0.812904 0.628315
vt 0.795861 0.631698
vt 0.806064 0.874756
vt 0.775388 0.868668
vt 0.795935 0.800984
vt 0.974274 0.670133
vt 0.980389 0.700739
vt 0.909848 0.707671
vt 0.720371 0.593292
vt 0.765364 0.647967
vt 0.753081 0.660228
vt 0.868008 0.868668
vt 0.847402 0.800984
vt 0.863454 0.794349
vt 0.922784 0.593292
vt 0.944908 0.615358
vt 0.890132 0.660228
vt 0.668948 0.670133
vt 0.736790 0.690665
vt 0.733407 0.707671
vt 0.944996 0.817325
vt 0.899830 0.758037
vt 0.680969 0.791378
vt 0.736812 0.742017
vt 0.980403 0.731944
vt 0.837199 0.557926
vt 0.847327 0.631698
vt 0.746490 0.856726
vt 0.765424 0.784715
vt 0.775255 0.564014
vt 0.779809 0.638333
vt 0.812981 0.804367
vt 0.830359 0.804367
vt 0.962294 0.641304
vt 0.906450 0.690665
vt 0.698267 0.615358
vt 0.743433 0.674645
vt 0.896896 0.856726
vt 0.662860 0.700738
vt 0.877839 0.647967
vt 0.962360 0.791378
vt 0.743469 0.758037
vt 0.830282 0.628315
vt 0.779877 0.794349
vt 0.746367 0.575956
vt 0.837338 0.874756
vt 0.899793 0.674645
vt 0.680903 0.641303
vt 0.801435 0.786030
vt 0.829680 0.644031
vt 0.815453 0.788812
vt 0.975555 0.353610
vt 0.981629 0.291800
vt 0.981643 0.323005
vt 0.963600 0.382440
vt 0.963534 0.232365
vt 0.975515 0.261195
vt 0.924132 0.430451
vt 0.924024 0.184354
vt 0.946148 0.206419
vt 0.869248 0.459729
vt 0.838578 0.465817
vt 0.898013 0.167017
vt 0.838439 0.148988
vt 0.721719 0.430451
vt 0.747607 0.167017
vt 0.776495 0.155075
vt 0.699595 0.408386
vt 0.699507 0.206419
vt 0.721611 0.184353
vt 0.664114 0.323005
vt 0.670188 0.261195
vt 0.682143 0.232365
vt 0.664100 0.291800
vt 0.682209 0.382440
vt 0.670228 0.353610
vt 0.747730 0.447788
vt 0.898136 0.447788
vt 0.946236 0.408386
vt 0.869115 0.155076
vt 0.886875 0.750711
vt 0.892319 0.695306
vt 0.895114 0.709292
vt 0.878940 0.762568
vt 0.868839 0.772651
vt 0.886845 0.682132
vt 0.843759 0.786030
vt 0.856904 0.652270
vt 0.868790 0.660192
vt 0.829744 0.788812
vt 0.843698 0.646813
vt 0.801373 0.646813
vt 0.815389 0.644031
vt 0.776343 0.772651
vt 0.776293 0.660192
vt 0.788172 0.652270
vt 0.752813 0.737537
vt 0.758258 0.682132
vt 0.766192 0.670276
vt 0.750019 0.723552
vt 0.750013 0.709292
vt 0.752795 0.695306
vt 0.758288 0.750711
vt 0.788229 0.780573
vt 0.856960 0.780573
vt 0.895120 0.723551
vt 0.892338 0.737537
vt 0.878900 0.670275
vt 0.766233 0.762568
vt 0.500000 0.904899
vt 0.531205 0.904899
vt 0.531205 0.984851
vt 0.562415 0.904899
vt 0.562415 0.984851
vt 0.593635 0.904899
vt 0.593635 0.984851
vt 0.624868 0.904899
vt 0.624868 0.984851
vt 0.656114 0.904899
vt 0.656114 0.984851
vt 0.687373 0.904899
vt 0.687373 0.984851
vt 0.718642 0.904899
vt 0.718642 0.984851
vt 0.749916 0.904899
vt 0.749916 0.984851
vt 0.781190 0.904899
vt 0.781189 0.984851
vt 0.812458 0.904900
vt 0.812458 0.984851
vt 0.843717 0.904900
vt 0.843717 0.984851
vt 0.874963 0.904900
vt 0.874963 0.984851
vt 0.906196 0.904900
vt 0.937416 0.904900
vt 0.937416 0.984851
vt 0.968626 0.904900
vt 0.968626 0.984851
vt 0.999831 0.904900
vt 0.999831 0.984851
vt 0.000169 0.904900
vt 0.031374 0.904900
vt 0.031374 0.984851
vt 0.062584 0.904900
vt 0.062584 0.984851
vt 0.093804 0.904900
vt 0.093804 0.984851
vt 0.125037 0.904900
vt 0.125037 0.984851
vt 0.156283 0.904900
vt 0.156283 0.984851
vt 0.187542 0.904900
vt 0.187542 0.984851
vt 0.218811 0.904899
vt 0.218811 0.984851
vt 0.250085 0.904899
vt 0.250085 0.984851
vt 0.281359 0.904899
vt 0.281359 0.984851
vt 0.312627 0.904899
vt 0.312627 0.984851
vt 0.343886 0.904899
vt 0.343886 0.984851
vt 0.375132 0.904899
vt 0.375133 0.984851
vt 0.406365 0.904899
vt 0.406365 0.984851
vt 0.437585 0.904899
vt 0.437585 0.984851
vt 0.468795 0.904899
vt 0.500000 0.984851
vt 0.468795 0.984851
vt 0.505402 0.130515
vt 0.505168 0.830141
vt 0.486098 0.830134
vt 0.314919 0.130451
vt 0.314683 0.830076
vt 0.295653 0.830070
vt 0.105313 0.130379
vt 0.105071 0.830005
vt 0.086027 0.829999
vt 0.543528 0.130528
vt 0.543296 0.830153
vt 0.524235 0.830147
vt 0.143425 0.130392
vt 0.143184 0.830018
vt 0.124124 0.830012
vt 0.372004 0.130470
vt 0.371767 0.830096
vt 0.352737 0.830089
vt 0.581624 0.130540
vt 0.581393 0.830166
vt 0.562349 0.830160
vt 0.181561 0.130406
vt 0.181321 0.830031
vt 0.162251 0.830025
vt 0.410085 0.130483
vt 0.409847 0.830109
vt 0.390803 0.830102
vt 0.619691 0.130553
vt 0.619459 0.830178
vt 0.600429 0.830172
vt 0.219696 0.130419
vt 0.219458 0.830044
vt 0.200391 0.830038
vt 0.448197 0.130496
vt 0.447961 0.830121
vt 0.428900 0.830115
vt 0.257808 0.130431
vt 0.257572 0.830057
vt 0.238519 0.830051
vt 0.048202 0.130360
vt 0.047960 0.829985
vt 0.028933 0.829979
vt 0.486333 0.130509
vt 0.467028 0.830128
vt 0.295889 0.130444
vt 0.276616 0.830064
vt 0.086269 0.130373
vt 0.066990 0.829992
vt 0.524468 0.130522
vt 0.333947 0.130457
vt 0.333710 0.830083
vt 0.124365 0.130386
vt 0.352974 0.130464
vt 0.562580 0.130534
vt 0.162491 0.130399
vt 0.391041 0.130477
vt 0.600661 0.130547
vt 0.200630 0.130412
vt 0.429137 0.130490
vt 0.638719 0.130559
vt 0.638486 0.830185
vt 0.238756 0.130425
vt 0.467263 0.130502
vt 0.276853 0.130438
vt 0.067232 0.130366
vt 0.906196 0.984851
vt 0.000169 0.984851
vt 0.029175 0.130353
vn 0.000000 1.000000 0.000000
vn 0.000000 -1.000000 -0.000000
vn 0.000000 0.000000 -1.000000
vn 0.195500 0.000000 -0.980700
vn 0.383400 0.000000 -0.923600
vn 0.556400 0.000000 -0.830900
vn 0.707900 0.000000 -0.706300
vn 0.832000 0.000000 -0.554700
vn 0.924200 0.000000 -0.382000
vn 0.980900 0.000000 -0.194700
vn 1.000000 0.000000 -0.000000
vn 0.980900 0.000000 0.194700
vn 0.924200 0.000000 0.382000
vn 0.832000 0.000000 0.554700
vn 0.707900 0.000000 0.706300
vn 0.556400 0.000000 0.830900
vn 0.383400 0.000000 0.923600
vn 0.195500 0.000000 0.980700
vn 0.000000 0.000000 1.000000
vn -0.195500 0.000000 0.980700
vn -0.383400 0.000000 0.923600
vn -0.556400 0.000000 0.830900
vn -0.707900 0.000000 0.706300
vn -0.832000 0.000000 0.554700
vn -0.924200 0.000000 0.382000
vn -0.980900 0.000000 0.194700
vn -1.000000 0.000000 -0.000000
vn -0.980900 0.000000 -0.194700
vn -0.924200 0.000000 -0.382000
vn -0.832000 0.000000 -0.554700
vn -0.707900 0.000000 -0.706300
vn -0.556400 0.000000 -0.830900
vn -0.383400 0.000000 -0.923600
vn -0.195500 0.000000 -0.980700
s off
f 58/1/1 93/2/1 94/3/1
f 47/4/2 17/5/2 19/6/2
f 38/7/1 36/8/1 82/9/1
f 16/10/1 14/11/1 71/12/1
f 64/13/1 96/14/1 65/15/1
f 44/16/1 42/17/1 85/18/1
f 20/19/1 74/20/1 75/21/1
f 50/22/1 48/23/1 88/24/1
f 6/25/1 4/26/1 66/27/1
f 26/28/1 77/29/1 78/30/1
f 54/31/1 91/32/1 92/33/1
f 12/34/1 10/35/1 69/36/1
f 32/37/1 80/38/1 81/39/1
f 60/40/1 94/3/1 95/41/1
f 40/42/1 38/7/1 83/43/1
f 4/26/1 2/44/1 65/15/1
f 18/45/1 16/10/1 72/46/1
f 46/47/1 44/16/1 86/48/1
f 22/49/1 75/21/1 76/50/1
f 50/22/1 89/51/1 90/52/1
f 8/53/1 6/25/1 67/54/1
f 28/55/1 78/30/1 79/56/1
f 56/57/1 92/33/1 93/2/1
f 36/8/1 34/58/1 81/39/1
f 14/11/1 12/34/1 70/59/1
f 62/60/1 95/41/1 96/14/1
f 42/17/1 40/42/1 84/61/1
f 18/45/1 73/62/1 74/20/1
f 48/23/1 46/47/1 87/63/1
f 24/64/1 76/50/1 77/29/1
f 52/65/1 90/52/1 91/32/1
f 10/35/1 8/53/1 68/66/1
f 30/67/1 79/56/1 80/38/1
f 120/68/1 105/69/1 121/70/1
f 60/40/1 58/1/1 94/3/1
f 3/71/2 63/72/2 1/73/2
f 5/74/2 59/75/2 61/76/2
f 9/77/2 55/78/2 57/79/2
f 13/80/2 15/81/2 53/82/2
f 17/5/2 47/4/2 49/83/2
f 23/84/2 43/85/2 45/86/2
f 25/87/2 39/88/2 41/89/2
f 31/90/2 35/91/2 37/92/2
f 35/91/2 31/90/2 33/93/2
f 37/92/2 27/94/2 29/95/2
f 43/85/2 23/84/2 25/87/2
f 47/4/2 19/6/2 21/96/2
f 49/83/2 15/81/2 17/5/2
f 53/82/2 11/97/2 13/80/2
f 57/79/2 7/98/2 9/77/2
f 63/72/2 3/71/2 5/74/2
f 5/74/2 61/76/2 63/72/2
f 9/77/2 11/97/2 55/78/2
f 21/96/2 45/86/2 47/4/2
f 25/87/2 27/94/2 39/88/2
f 37/92/2 29/95/2 31/90/2
f 45/86/2 21/96/2 23/84/2
f 49/83/2 51/99/2 15/81/2
f 57/79/2 59/75/2 7/98/2
f 5/74/2 7/98/2 59/75/2
f 25/87/2 41/89/2 43/85/2
f 37/92/2 39/88/2 27/94/2
f 15/81/2 51/99/2 53/82/2
f 55/78/2 11/97/2 53/82/2
f 83/43/1 38/7/1 82/9/1
f 72/46/1 16/10/1 71/12/1
f 2/44/1 64/13/1 65/15/1
f 86/48/1 44/16/1 85/18/1
f 22/49/1 20/19/1 75/21/1
f 89/51/1 50/22/1 88/24/1
f 67/54/1 6/25/1 66/27/1
f 28/55/1 26/28/1 78/30/1
f 56/57/1 54/31/1 92/33/1
f 70/59/1 12/34/1 69/36/1
f 34/58/1 32/37/1 81/39/1
f 62/60/1 60/40/1 95/41/1
f 84/61/1 40/42/1 83/43/1
f 66/27/1 4/26/1 65/15/1
f 73/62/1 18/45/1 72/46/1
f 87/63/1 46/47/1 86/48/1
f 24/64/1 22/49/1 76/50/1
f 52/65/1 50/22/1 90/52/1
f 68/66/1 8/53/1 67/54/1
f 30/67/1 28/55/1 79/56/1
f 58/1/1 56/57/1 93/2/1
f 82/9/1 36/8/1 81/39/1
f 71/12/1 14/11/1 70/59/1
f 64/13/1 62/60/1 96/14/1
f 85/18/1 42/17/1 84/61/1
f 20/19/1 18/45/1 74/20/1
f 88/24/1 48/23/1 87/63/1
f 26/28/1 24/64/1 77/29/1
f 54/31/1 52/65/1 91/32/1
f 69/36/1 10/35/1 68/66/1
f 32/37/1 30/67/1 80/38/1
f 127/100/1 99/101/1 98/102/1
f 126/103/1 125/104/1 100/105/1
f 123/106/1 103/107/1 102/108/1
f 122/109/1 105/69/1 104/110/1
f 120/68/1 107/111/1 106/112/1
f 118/113/1 109/114/1 108/115/1
f 115/116/1 111/117/1 110/118/1
f 114/119/1 113/120/1 112/121/1
f 112/121/1 115/116/1 114/119/1
f 110/118/1 109/114/1 116/122/1
f 107/111/1 119/123/1 118/113/1
f 106/112/1 105/69/1 120/68/1
f 103/107/1 123/106/1 122/109/1
f 102/108/1 125/104/1 124/124/1
f 99/101/1 127/100/1 126/103/1
f 98/102/1 97/125/1 128/126/1
f 126/103/1 100/105/1 99/101/1
f 122/109/1 104/110/1 103/107/1
f 118/113/1 108/115/1 107/111/1
f 115/116/1 112/121/1 111/117/1
f 110/118/1 116/122/1 115/116/1
f 107/111/1 120/68/1 119/123/1
f 102/108/1 124/124/1 123/106/1
f 98/102/1 128/126/1 127/100/1
f 100/105/1 125/104/1 101/127/1
f 118/113/1 117/128/1 109/114/1
f 116/122/1 109/114/1 117/128/1
f 102/108/1 101/127/1 125/104/1
f 122/109/1 121/70/1 105/69/1
s 1
f 2/129/3 4/130/4 3/131/4
f 4/130/4 6/132/5 5/133/5
f 6/132/5 8/134/6 7/135/6
f 8/134/6 10/136/7 9/137/7
f 10/136/7 12/138/8 11/139/8
f 12/138/8 14/140/9 13/141/9
f 14/140/9 16/142/10 15/143/10
f 16/142/10 18/144/11 17/145/11
f 18/144/11 20/146/12 19/147/12
f 20/146/12 22/148/13 21/149/13
f 22/148/13 24/150/14 23/151/14
f 23/151/14 24/150/14 26/152/15
f 25/153/15 26/152/15 28/154/16
f 28/154/16 30/155/17 29/156/17
f 30/155/17 32/157/18 31/158/18
f 32/157/18 34/159/19 33/160/19
f 34/161/19 36/162/20 35/163/20
f 36/162/20 38/164/21 37/165/21
f 38/164/21 40/166/22 39/167/22
f 40/166/22 42/168/23 41/169/23
f 42/168/23 44/170/24 43/171/24
f 44/170/24 46/172/25 45/173/25
f 46/172/25 48/174/26 47/175/26
f 48/174/26 50/176/27 49/177/27
f 50/176/27 52/178/28 51/179/28
f 52/178/28 54/180/29 53/181/29
f 54/180/29 56/182/30 55/183/30
f 56/182/30 58/184/31 57/185/31
f 58/184/31 60/186/32 59/187/32
f 60/186/32 62/188/33 61/189/33
f 64/190/34 2/129/3 1/191/3
f 62/188/33 64/190/34 63/192/34
f 88/193/26 120/194/26 121/195/27
f 66/196/4 98/197/4 99/198/5
f 77/199/15 109/200/15 110/201/16
f 86/202/24 118/203/24 119/204/25
f 75/205/13 107/206/13 108/207/14
f 95/208/33 127/209/33 128/210/34
f 84/211/22 116/212/22 117/213/23
f 73/214/11 105/215/11 106/216/12
f 93/217/31 125/218/31 126/219/32
f 82/220/20 114/221/20 115/222/21
f 71/223/9 103/224/9 104/225/10
f 91/226/29 123/227/29 124/228/30
f 69/229/7 101/230/7 102/231/8
f 80/232/18 112/233/18 113/234/19
f 89/235/27 121/195/27 122/236/28
f 67/237/5 99/198/5 100/238/6
f 78/239/16 110/201/16 111/240/17
f 87/241/25 119/204/25 120/194/26
f 65/242/3 97/243/3 98/197/4
f 76/244/14 108/207/14 109/200/15
f 96/245/34 128/210/34 97/243/3
f 85/246/23 117/213/23 118/203/24
f 74/247/12 106/216/12 107/206/13
f 94/248/32 126/219/32 127/209/33
f 83/249/21 115/222/21 116/212/22
f 72/250/10 104/225/10 105/215/11
f 92/251/30 124/228/30 125/218/31
f 81/252/19 113/253/19 114/221/20
f 70/254/8 102/231/8 103/224/9
f 90/255/28 122/236/28 123/227/29
f 68/256/6 100/238/6 101/230/7
f 79/257/17 111/240/17 112/233/18
f 1/191/3 2/129/3 3/131/4
f 3/131/4 4/130/4 5/133/5
f 5/133/5 6/132/5 7/135/6
f 7/135/6 8/134/6 9/137/7
f 9/137/7 10/136/7 11/139/8
f 11/139/8 12/138/8 13/141/9
f 13/141/9 14/140/9 15/143/10
f 15/143/10 16/142/10 17/145/11
f 17/145/11 18/144/11 19/147/12
f 19/147/12 20/146/12 21/149/13
f 21/149/13 22/148/13 23/151/14
f 25/153/15 23/151/14 26/152/15
f 27/258/16 25/153/15 28/154/16
f 27/258/16 28/154/16 29/156/17
f 29/156/17 30/155/17 31/158/18
f 31/158/18 32/157/18 33/160/19
f 33/259/19 34/161/19 35/163/20
f 35/163/20 36/162/20 37/165/21
f 37/165/21 38/164/21 39/167/22
f 39/167/22 40/166/22 41/169/23
f 41/169/23 42/168/23 43/171/24
f 43/171/24 44/170/24 45/173/25
f 45/173/25 46/172/25 47/175/26
f 47/175/26 48/174/26 49/177/27
f 49/177/27 50/176/27 51/179/28
f 51/179/28 52/178/28 53/181/29
f 53/181/29 54/180/29 55/183/30
f 55/183/30 56/182/30 57/185/31
f 57/185/31 58/184/31 59/187/32
f 59/187/32 60/186/32 61/189/33
f 63/192/34 64/190/34 1/191/3
f 61/189/33 62/188/33 63/192/34
f 89/235/27 88/193/26 121/195/27
f 67/237/5 66/196/4 99/198/5
f 78/239/16 77/199/15 110/201/16
f 87/241/25 86/202/24 119/204/25
f 76/244/14 75/205/13 108/207/14
f 96/245/34 95/208/33 128/210/34
f 85/246/23 84/211/22 117/213/23
f 74/247/12 73/214/11 106/216/12
f 94/248/32 93/217/31 126/219/32
f 83/249/21 82/220/20 115/222/21
f 72/250/10 71/223/9 104/225/10
f 92/251/30 91/226/29 124/228/30
f 70/254/8 69/229/7 102/231/8
f 81/260/19 80/232/18 113/234/19
f 90/255/28 89/235/27 122/236/28
f 68/256/6 67/237/5 100/238/6
f 79/257/17 78/239/16 111/240/17
f 88/193/26 87/241/25 120/194/26
f 66/196/4 65/242/3 98/197/4
f 77/199/15 76/244/14 109/200/15
f 65/242/3 96/245/34 97/243/3
f 86/202/24 85/246/23 118/203/24
f 75/205/13 74/247/12 107/206/13
f 95/208/33 94/248/32 127/209/33
f 84/211/22 83/249/21 116/212/22
f 73/214/11 72/250/10 105/215/11
f 93/217/31 92/251/30 125/218/31
f 82/220/20 81/252/19 114/221/20
f 71/223/9 70/254/8 103/224/9
f 91/226/29 90/255/28 123/227/29
f 69/229/7 68/256/6 101/230/7
f 80/232/18 79/257/17 112/233/18
