# Blender v2.73 (sub 0) OBJ File: 'cube.blend'
# www.blender.org
o Cube
v 1.000000 -1.000000 -1.000000
v 1.000000 -1.000000 1.000000
v -1.000000 -1.000000 1.000000
v -1.000000 -1.000000 -1.000000
v 1.000000 1.000000 -0.999999
v 0.999999 1.000000 1.000001
v -1.000000 1.000000 1.000000
v -1.000000 1.000000 -1.000000
vt 0.625014 0.250014
vt 0.375002 0.250006
vt 0.375007 -0.000002
vt 0.375057 0.750037
vt 0.375011 0.500009
vt 0.624998 0.500002
vt 0.625013 0.750022
vt 0.875009 0.499995
vt 0.125008 0.500000
vt 0.625031 0.999985
vt 0.375001 1.000038
vt 0.625013 -0.000002
vt 0.875049 0.750040
vt 0.124997 0.750098
vn 0.000000 -1.000000 0.000000
vn 0.000000 1.000000 0.000000
vn 1.000000 0.000000 0.000000
vn -0.000000 0.000000 1.000000
vn -1.000000 -0.000000 -0.000000
vn 0.000000 0.000000 -1.000000
s off
f 2/1/1 3/2/1 4/3/1
f 8/4/2 7/5/2 6/6/2
f 5/7/3 6/6/3 2/8/3
f 6/6/4 7/5/4 3/2/4
f 3/9/5 7/5/5 8/4/5
f 1/10/6 4/11/6 8/4/6
f 1/12/1 2/1/1 4/3/1
f 5/7/2 8/4/2 6/6/2
f 1/13/3 5/7/3 2/8/3
f 2/1/4 6/6/4 3/2/4
f 4/14/5 3/9/5 8/4/5
f 5/7/6 1/10/6 8/4/6
