# Blender v2.73 (sub 0) OBJ File: 'cylinder.blend'
# www.blender.org
o Cylinder
v -2.220093 0.000000 -0.165519
v 2.220093 -0.000000 -0.165519
v -2.220093 -0.032291 -0.162338
v 2.220093 -0.032291 -0.162338
v -2.220093 -0.063341 -0.152919
v 2.220093 -0.063341 -0.152919
v -2.220093 -0.091957 -0.137624
v 2.220093 -0.091957 -0.137624
v -2.220093 -0.117039 -0.117039
v 2.220093 -0.117039 -0.117039
v -2.220093 -0.137624 -0.091957
v 2.220093 -0.137624 -0.091957
v -2.220093 -0.152919 -0.063341
v 2.220093 -0.152919 -0.063341
v -2.220093 -0.162338 -0.032291
v 2.220093 -0.162338 -0.032291
v -2.220093 -0.165518 -0.000000
v 2.220093 -0.165519 -0.000000
v -2.220093 -0.162338 0.032291
v 2.220093 -0.162338 0.032291
v -2.220093 -0.152919 0.063341
v 2.220093 -0.152919 0.063341
v -2.220093 -0.137624 0.091957
v 2.220093 -0.137624 0.091957
v -2.220093 -0.117039 0.117039
v 2.220093 -0.117039 0.117039
v -2.220093 -0.091957 0.137624
v 2.220093 -0.091957 0.137624
v -2.220093 -0.063341 0.152919
v 2.220093 -0.063341 0.152919
v -2.220093 -0.032291 0.162338
v 2.220093 -0.032291 0.162338
v -2.220093 0.000000 0.165519
v 2.220093 -0.000000 0.165519
v -2.220093 0.032291 0.162338
v 2.220093 0.032291 0.162338
v -2.220093 0.063341 0.152919
v 2.220093 0.063341 0.152919
v -2.220093 0.091957 0.137624
v 2.220093 0.091957 0.137624
v -2.220093 0.117039 0.117039
v 2.220093 0.117039 0.117039
v -2.220093 0.137624 0.091957
v 2.220093 0.137624 0.091957
v -2.220093 0.152919 0.063341
v 2.220093 0.152919 0.063341
v -2.220093 0.162338 0.032291
v 2.220093 0.162338 0.032291
v -2.220093 0.165519 -0.000000
v 2.220093 0.165518 -0.000000
v -2.220093 0.162338 -0.032291
v 2.220093 0.162338 -0.032291
v -2.220093 0.152919 -0.063341
v 2.220093 0.152919 -0.063341
v -2.220093 0.137624 -0.091957
v 2.220093 0.137623 -0.091957
v -2.220093 0.117039 -0.117039
v 2.220093 0.117039 -0.117039
v -2.220093 0.091957 -0.137624
v 2.220093 0.091957 -0.137624
v -2.220093 0.063341 -0.152919
v 2.220093 0.063341 -0.152919
v -2.220093 0.032291 -0.162338
v 2.220093 0.032291 -0.162338
vt 0.682787 0.687395
vt 0.656810 0.951145
vt 0.634718 0.726844
vt 0.126748 0.706721
vt 0.328958 0.706720
vt 0.351050 0.931021
vt 0.859019 0.704752
vt 0.898468 0.903076
vt 0.881110 0.929054
vt 0.898468 0.752821
vt 0.916519 0.843570
vt 0.910424 0.874212
vt 0.910424 0.781685
vt 0.916519 0.812328
vt 0.881110 0.726844
vt 0.833042 0.687395
vt 0.773536 0.669344
vt 0.804178 0.675439
vt 0.711651 0.675439
vt 0.742293 0.669344
vt 0.656810 0.704752
vt 0.605405 0.781685
vt 0.617361 0.752821
vt 0.599310 0.843570
vt 0.599310 0.812327
vt 0.617361 0.903076
vt 0.605405 0.874212
vt 0.634718 0.929053
vt 0.773536 0.986553
vt 0.682786 0.968502
vt 0.742293 0.986553
vt 0.711651 0.980458
vt 0.833042 0.968502
vt 0.804178 0.980458
vt 0.859019 0.951145
vt 0.075343 0.876180
vt 0.104657 0.728813
vt 0.075343 0.783654
vt 0.087299 0.754790
vt 0.069248 0.845538
vt 0.069248 0.814296
vt 0.087299 0.905044
vt 0.126748 0.953113
vt 0.104656 0.931021
vt 0.181589 0.982426
vt 0.152725 0.970470
vt 0.243474 0.988522
vt 0.212232 0.988521
vt 0.328958 0.953113
vt 0.302981 0.970471
vt 0.274116 0.982427
vt 0.380363 0.783654
vt 0.380363 0.876180
vt 0.368407 0.905044
vt 0.386458 0.814296
vt 0.386458 0.845538
vt 0.351050 0.728812
vt 0.368407 0.754789
vt 0.274116 0.677407
vt 0.302980 0.689363
vt 0.152725 0.689364
vt 0.212232 0.671313
vt 0.243474 0.671312
vt 0.181590 0.677408
vt 0.250059 0.650915
vt 0.250059 0.005404
vt 0.281302 0.005404
vt 0.281302 0.650915
vt 0.312544 0.005404
vt 0.312544 0.650915
vt 0.343787 0.005404
vt 0.375029 0.005404
vt 0.375029 0.650915
vt 0.406271 0.005404
vt 0.406272 0.650914
vt 0.437514 0.005403
vt 0.437514 0.650914
vt 0.468756 0.005403
vt 0.468757 0.650914
vt 0.499998 0.005403
vt 0.531241 0.005403
vt 0.531242 0.650914
vt 0.562483 0.005402
vt 0.562485 0.650914
vt 0.593726 0.005402
vt 0.593727 0.650913
vt 0.624968 0.005402
vt 0.624970 0.650913
vt 0.656210 0.005401
vt 0.687453 0.005401
vt 0.687455 0.650912
vt 0.718695 0.005400
vt 0.718697 0.650912
vt 0.749938 0.005400
vt 0.749940 0.650912
vt 0.781180 0.005400
vt 0.781182 0.650911
vt 0.812423 0.005399
vt 0.812425 0.650911
vt 0.843665 0.005399
vt 0.843667 0.650910
vt 0.874907 0.005398
vt 0.874910 0.650910
vt 0.906150 0.005397
vt 0.906152 0.650909
vt 0.937392 0.005397
vt 0.968635 0.005396
vt 0.968638 0.650908
vt 0.999877 0.005396
vt 0.999880 0.650908
vt 0.000121 0.005404
vt 0.031363 0.005404
vt 0.031362 0.650915
vt 0.062605 0.005404
vt 0.093848 0.005404
vt 0.093847 0.650915
vt 0.125090 0.005404
vt 0.125090 0.650915
vt 0.156332 0.005404
vt 0.156332 0.650915
vt 0.187575 0.005404
vt 0.218817 0.650915
vt 0.218817 0.005404
vt 0.343787 0.650915
vt 0.499999 0.650914
vt 0.656212 0.650913
vt 0.937395 0.650909
vt 0.000120 0.650914
vt 0.062605 0.650915
vt 0.187575 0.650915
vn 1.000000 0.000000 0.000000
vn -1.000000 0.000000 0.000000
vn 1.000000 0.000100 0.000000
vn -1.000000 0.000100 0.000000
vn 0.000000 -0.000000 -1.000000
vn -0.000000 -0.195100 -0.980800
vn -0.000000 -0.382700 -0.923900
vn -0.000000 -0.555600 -0.831500
vn -0.000000 -0.707100 -0.707100
vn -0.000000 -0.831500 -0.555600
vn -0.000000 -0.923900 -0.382700
vn -0.000000 -0.980800 -0.195100
vn -0.000000 -1.000000 -0.000000
vn -0.000000 -0.980800 0.195100
vn -0.000000 -0.923900 0.382700
vn -0.000000 -0.831500 0.555600
vn -0.000000 -0.707100 0.707100
vn -0.000000 -0.555600 0.831500
vn -0.000000 -0.382700 0.923900
vn -0.000000 -0.195100 0.980800
vn 0.000000 0.000000 1.000000
vn 0.000000 0.195100 0.980800
vn 0.000000 0.382700 0.923900
vn 0.000000 0.555600 0.831500
vn 0.000000 0.707100 0.707100
vn 0.000000 0.831500 0.555600
vn 0.000000 0.923900 0.382700
vn 0.000000 0.980800 0.195100
vn 0.000000 1.000000 -0.000000
vn 0.000000 0.980800 -0.195100
vn 0.000000 0.923900 -0.382700
vn 0.000000 0.831500 -0.555600
vn 0.000000 0.707100 -0.707100
vn 0.000000 0.555600 -0.831500
vn 0.000000 0.382700 -0.923900
vn 0.000000 0.195100 -0.980800
s off
f 32/1/1 52/2/1 36/3/1
f 1/4/2 15/5/2 31/6/2
f 20/7/1 6/8/1 4/9/1
f 16/10/1 10/11/1 8/12/1
f 16/10/3 14/13/3 12/14/3
f 20/7/1 18/15/1 16/10/1
f 32/1/1 22/16/1 20/7/1
f 22/16/1 26/17/1 24/18/1
f 32/1/1 30/19/1 28/20/1
f 36/3/1 34/21/1 32/1/1
f 40/22/1 38/23/1 36/3/1
f 44/24/1 42/25/1 40/22/1
f 48/26/3 46/27/3 44/24/3
f 52/2/1 50/28/1 48/26/1
f 60/29/1 54/30/1 52/2/1
f 60/29/1 58/31/1 56/32/1
f 64/33/1 62/34/1 60/29/1
f 4/9/1 2/35/1 64/33/1
f 16/10/1 8/12/1 6/8/1
f 10/11/1 16/10/1 12/14/1
f 28/20/1 26/17/1 22/16/1
f 22/16/1 32/1/1 28/20/1
f 44/24/1 40/22/1 36/3/1
f 52/2/1 48/26/1 44/24/1
f 60/29/1 56/32/1 54/30/1
f 4/9/1 64/33/1 60/29/1
f 20/7/1 16/10/1 6/8/1
f 4/9/1 32/1/1 20/7/1
f 52/2/1 44/24/1 36/3/1
f 4/9/1 60/29/1 52/2/1
f 52/2/1 32/1/1 4/9/1
f 53/36/2 63/37/2 1/4/2
f 63/37/2 59/38/2 61/39/2
f 53/36/2 55/40/2 57/41/2
f 1/4/2 51/42/2 53/36/2
f 51/42/2 47/43/2 49/44/2
f 47/43/4 43/45/4 45/46/4
f 47/43/2 39/47/2 41/48/2
f 33/49/2 35/50/2 37/51/2
f 1/4/2 31/6/2 33/49/2
f 21/52/2 27/53/2 29/54/2
f 27/53/2 23/55/2 25/56/2
f 17/57/2 19/58/2 21/52/2
f 31/6/2 15/5/2 17/57/2
f 1/4/2 11/59/2 13/60/2
f 3/61/2 7/62/2 9/63/2
f 7/62/2 3/61/2 5/64/2
f 57/41/2 59/38/2 63/37/2
f 63/37/2 53/36/2 57/41/2
f 41/48/2 43/45/2 47/43/2
f 1/4/2 37/51/2 39/47/2
f 21/52/2 29/54/2 31/6/2
f 27/53/2 21/52/2 23/55/2
f 1/4/2 13/60/2 15/5/2
f 1/4/2 3/61/2 9/63/2
f 39/47/2 51/42/2 1/4/2
f 51/42/2 39/47/2 47/43/2
f 17/57/2 21/52/2 31/6/2
f 1/4/2 9/63/2 11/59/2
f 33/49/2 37/51/2 1/4/2
s 1
f 1/65/5 2/66/5 4/67/6
f 3/68/6 4/67/6 6/69/7
f 5/70/7 6/69/7 8/71/8
f 8/71/8 10/72/9 9/73/9
f 10/72/9 12/74/10 11/75/10
f 12/74/10 14/76/11 13/77/11
f 14/76/11 16/78/12 15/79/12
f 15/79/12 16/78/12 18/80/13
f 18/80/13 20/81/14 19/82/14
f 20/81/14 22/83/15 21/84/15
f 22/83/15 24/85/16 23/86/16
f 24/85/16 26/87/17 25/88/17
f 25/88/17 26/87/17 28/89/18
f 28/89/18 30/90/19 29/91/19
f 30/90/19 32/92/20 31/93/20
f 32/92/20 34/94/21 33/95/21
f 34/94/21 36/96/22 35/97/22
f 36/96/22 38/98/23 37/99/23
f 38/98/23 40/100/24 39/101/24
f 40/100/24 42/102/25 41/103/25
f 42/102/25 44/104/26 43/105/26
f 43/105/26 44/104/26 46/106/27
f 46/106/27 48/107/28 47/108/28
f 48/107/28 50/109/29 49/110/29
f 50/111/29 52/112/30 51/113/30
f 51/113/30 52/112/30 54/114/31
f 54/114/31 56/115/32 55/116/32
f 55/116/32 56/115/32 58/117/33
f 57/118/33 58/117/33 60/119/34
f 59/120/34 60/119/34 62/121/35
f 63/122/36 64/123/36 2/66/5
f 62/121/35 64/123/36 63/122/36
f 3/68/6 1/65/5 4/67/6
f 5/70/7 3/68/6 6/69/7
f 7/124/8 5/70/7 8/71/8
f 7/124/8 8/71/8 9/73/9
f 9/73/9 10/72/9 11/75/10
f 11/75/10 12/74/10 13/77/11
f 13/77/11 14/76/11 15/79/12
f 17/125/13 15/79/12 18/80/13
f 17/125/13 18/80/13 19/82/14
f 19/82/14 20/81/14 21/84/15
f 21/84/15 22/83/15 23/86/16
f 23/86/16 24/85/16 25/88/17
f 27/126/18 25/88/17 28/89/18
f 27/126/18 28/89/18 29/91/19
f 29/91/19 30/90/19 31/93/20
f 31/93/20 32/92/20 33/95/21
f 33/95/21 34/94/21 35/97/22
f 35/97/22 36/96/22 37/99/23
f 37/99/23 38/98/23 39/101/24
f 39/101/24 40/100/24 41/103/25
f 41/103/25 42/102/25 43/105/26
f 45/127/27 43/105/26 46/106/27
f 45/127/27 46/106/27 47/108/28
f 47/108/28 48/107/28 49/110/29
f 49/128/29 50/111/29 51/113/30
f 53/129/31 51/113/30 54/114/31
f 53/129/31 54/114/31 55/116/32
f 57/118/33 55/116/32 58/117/33
f 59/120/34 57/118/33 60/119/34
f 61/130/35 59/120/34 62/121/35
f 1/65/5 63/122/36 2/66/5
f 61/130/35 62/121/35 63/122/36
