# Blender v2.77 (sub 0) OBJ File: 'Treeline.blend'
# www.blender.org
mtllib Treeline.mtl
o Plane.003_Plane.001
v 1.802867 0.288411 -0.019180
v 3.802867 0.288411 -0.019180
v 1.802867 0.029794 -0.019180
v 3.802867 0.029794 -0.019180
v 1.379116 0.288411 -0.088235
v 1.379116 0.029794 -0.088235
v 1.030697 0.288411 -0.367598
v 1.030697 0.029794 -0.367598
v 1.071503 0.288411 -0.766238
v 1.071503 0.029794 -0.766238
v 1.623950 0.288411 -0.916906
v 1.623950 0.029794 -0.916906
v 2.202513 0.288411 -1.061546
v 2.202513 0.029794 -1.061546
v 2.405913 0.288411 -1.206187
v 2.405913 0.029794 -1.206187
v 2.396873 0.288411 -1.364387
v 2.396873 0.029794 -1.364387
v 2.243193 0.288411 -1.549708
v 2.243193 0.029794 -1.549708
v 2.030752 0.288411 -1.522588
v 2.030752 0.029794 -1.522588
v 1.538070 0.288411 -1.192627
v 1.538070 0.029794 -1.192627
v 1.009227 0.288411 -1.106746
v 1.009227 0.029794 -1.106746
v 0.732602 0.288411 -1.481004
v 0.732602 0.029794 -1.481004
v 0.461401 0.288411 -1.904078
v 0.461401 0.029794 -1.904078
v 0.239016 0.288411 -2.413936
v 0.239016 0.029794 -2.413936
v 0.239016 0.288411 -3.157027
v 0.239016 0.029794 -3.157027
v 0.276984 0.288411 -3.656037
v 0.276984 0.029794 -3.656037
v 0.483097 0.288411 -4.279800
v 0.483097 0.029794 -4.279800
v 1.014651 0.288411 -4.583545
v 1.014651 0.029794 -4.583545
v 2.056064 0.288411 -4.822202
v 2.056064 0.029794 -4.822202
v 3.298165 0.288411 -4.849322
v 3.298165 0.029794 -4.849322
v 4.214826 0.288411 -4.757114
v 4.214826 0.029794 -4.757114
v 4.480602 0.288411 -4.556425
v 4.480602 0.029794 -4.556425
v 4.572811 0.288411 -3.900119
v 4.572811 0.029794 -3.900119
v 4.670444 0.288411 -2.755650
v 4.670444 0.029794 -2.755650
v 4.947068 0.288411 -1.898654
v 4.947068 0.029794 -1.898654
v 4.915826 0.288411 -1.344101
v 4.915826 0.029794 -1.344101
v 4.900205 0.288411 -0.469315
v 4.900205 0.029794 -0.469315
v 4.751803 0.288411 -0.117838
v 4.751803 0.029794 -0.117838
vt 0.1441 0.5360
vt 0.7801 0.3738
vt 0.7801 0.5360
vt 0.9167 0.3738
vt 0.9167 0.5360
vt 0.0617 0.5942
vt 0.2396 0.7087
vt 0.0617 0.7087
vt 0.2396 0.5942
vt 0.3991 0.7087
vt 0.3991 0.5942
vt 0.6272 0.7087
vt 0.6272 0.5942
vt 0.8646 0.7087
vt 0.1427 0.3693
vt 0.2213 0.5377
vt 0.1427 0.5377
vt 0.2213 0.3693
vt 0.2713 0.5377
vt 0.2713 0.3693
vt 0.3472 0.5377
vt 0.3472 0.3693
vt 0.4147 0.5377
vt 0.4147 0.3693
vt 0.6016 0.5377
vt 0.6016 0.3693
vt 0.7705 0.5377
vt 0.7705 0.3693
vt 0.9172 0.5377
vt 0.0713 0.6013
vt 0.2918 0.7097
vt 0.0713 0.7097
vt 0.2918 0.6013
vt 0.5357 0.7097
vt 0.5357 0.6013
vt 0.8617 0.7097
vt 0.1409 0.3700
vt 0.3617 0.5339
vt 0.1409 0.5339
vt 0.3617 0.3700
vt 0.6516 0.5339
vt 0.6516 0.3700
vt 0.9217 0.5339
vt 0.0610 0.5913
vt 0.4374 0.7099
vt 0.0610 0.7099
vt 0.4374 0.5913
vt 0.8752 0.7099
vt 0.1433 0.3726
vt 0.5145 0.5331
vt 0.1433 0.5331
vt 0.5145 0.3726
vt 0.6486 0.5331
vt 0.6486 0.3726
vt 0.9156 0.5331
vt 0.1111 0.5961
vt 0.4471 0.7092
vt 0.1111 0.7092
vt 0.4471 0.5961
vt 0.7106 0.7092
vt 0.7106 0.5961
vt 0.8730 0.7092
vt 0.0634 0.5987
vt 0.3848 0.7106
vt 0.0634 0.7106
vt 0.3881 0.6007
vt 0.5218 0.7076
vt 0.3881 0.7076
vt 0.5285 0.7071
vt 0.8650 0.5996
vt 0.8650 0.7071
vt 0.1441 0.3738
vt 0.8646 0.5942
vt 0.9172 0.3693
vt 0.8617 0.6013
vt 0.9217 0.3700
vt 0.8752 0.5913
vt 0.9156 0.3726
vt 0.8730 0.5961
vt 0.3848 0.5987
vt 0.5218 0.6007
vt 0.5285 0.5996
vn 0.0000 -0.0000 -1.0000
vn 0.1608 0.0000 -0.9870
vn 0.6256 0.0000 -0.7802
vn 0.9948 0.0000 0.1018
vn 0.2631 0.0000 0.9648
vn 0.2425 0.0000 0.9701
vn 0.5795 0.0000 0.8150
vn 0.9984 0.0000 -0.0570
vn 0.7698 0.0000 -0.6383
vn -0.1266 0.0000 -0.9919
vn -0.5565 0.0000 -0.8309
vn -0.1603 0.0000 -0.9871
vn 0.8042 0.0000 -0.5944
vn 0.8419 0.0000 -0.5397
vn 0.9166 0.0000 -0.3998
vn 1.0000 0.0000 0.0000
vn 0.9971 0.0000 0.0759
vn 0.9495 0.0000 0.3137
vn 0.4961 0.0000 0.8682
vn 0.2234 0.0000 0.9747
vn 0.0218 0.0000 0.9998
vn -0.1001 0.0000 0.9950
vn -0.6026 0.0000 0.7980
vn -0.9903 0.0000 0.1391
vn -0.9964 0.0000 0.0850
vn -0.9517 0.0000 0.3072
vn -0.9984 0.0000 -0.0562
vn -0.9998 0.0000 -0.0179
vn -0.9212 0.0000 -0.3890
vn -0.1034 -0.0000 -0.9946
usemtl None
s off
f 2/1/1 3/2/1 1/3/1
f 1/3/2 6/4/2 5/5/2
f 6/6/3 7/7/3 5/8/3
f 8/9/4 9/10/4 7/7/4
f 10/11/5 11/12/5 9/10/5
f 12/13/6 13/14/6 11/12/6
f 14/15/7 15/16/7 13/17/7
f 16/18/8 17/19/8 15/16/8
f 18/20/9 19/21/9 17/19/9
f 20/22/10 21/23/10 19/21/10
f 22/24/11 23/25/11 21/23/11
f 24/26/12 25/27/12 23/25/12
f 26/28/13 27/29/13 25/27/13
f 28/30/14 29/31/14 27/32/14
f 30/33/15 31/34/15 29/31/15
f 32/35/16 33/36/16 31/34/16
f 34/37/17 35/38/17 33/39/17
f 36/40/18 37/41/18 35/38/18
f 38/42/19 39/43/19 37/41/19
f 40/44/20 41/45/20 39/46/20
f 42/47/21 43/48/21 41/45/21
f 44/49/22 45/50/22 43/51/22
f 46/52/23 47/53/23 45/50/23
f 48/54/24 49/55/24 47/53/24
f 50/56/25 51/57/25 49/58/25
f 52/59/26 53/60/26 51/57/26
f 54/61/27 55/62/27 53/60/27
f 56/63/28 57/64/28 55/65/28
f 58/66/29 59/67/29 57/68/29
f 59/69/30 4/70/30 2/71/30
f 2/1/1 4/72/1 3/2/1
f 1/3/2 3/2/2 6/4/2
f 6/6/3 8/9/3 7/7/3
f 8/9/4 10/11/4 9/10/4
f 10/11/5 12/13/5 11/12/5
f 12/13/6 14/73/6 13/14/6
f 14/15/7 16/18/7 15/16/7
f 16/18/8 18/20/8 17/19/8
f 18/20/9 20/22/9 19/21/9
f 20/22/10 22/24/10 21/23/10
f 22/24/11 24/26/11 23/25/11
f 24/26/12 26/28/12 25/27/12
f 26/28/13 28/74/13 27/29/13
f 28/30/14 30/33/14 29/31/14
f 30/33/15 32/35/15 31/34/15
f 32/35/16 34/75/16 33/36/16
f 34/37/17 36/40/17 35/38/17
f 36/40/18 38/42/18 37/41/18
f 38/42/19 40/76/19 39/43/19
f 40/44/20 42/47/20 41/45/20
f 42/47/21 44/77/21 43/48/21
f 44/49/22 46/52/22 45/50/22
f 46/52/23 48/54/23 47/53/23
f 48/54/24 50/78/24 49/55/24
f 50/56/25 52/59/25 51/57/25
f 52/59/26 54/61/26 53/60/26
f 54/61/27 56/79/27 55/62/27
f 56/63/28 58/80/28 57/64/28
f 58/66/29 60/81/29 59/67/29
f 59/69/30 60/82/30 4/70/30
