# Blender v2.77 (sub 0) OBJ File: 'WaterWithCenterHole.blend'
# www.blender.org
mtllib WaterWithCenterHole.mtl
o Plane
v 0.100000 0.000000 -0.100000
v 1.000000 0.000000 -1.000000
v 0.100000 0.000000 0.100000
v -0.100000 0.000000 -0.100000
v -1.000000 0.000000 -1.000000
v -0.100000 0.000000 0.100000
v -1.000000 0.000000 1.000000
v 1.000000 0.000000 1.000000
vt 0.0001 0.0001
vt 0.4500 0.5500
vt 0.0001 0.9999
vt 0.5500 0.5500
vt 0.9999 0.0001
vt 0.5500 0.4500
vt 0.4500 0.4500
vt 0.9999 0.9999
vn 0.0000 1.0000 0.0000
usemtl None
s off
f 7/1/1 4/2/1 5/3/1
f 1/4/1 5/3/1 4/2/1
f 8/5/1 1/4/1 3/6/1
f 3/6/1 7/1/1 8/5/1
f 7/1/1 6/7/1 4/2/1
f 1/4/1 2/8/1 5/3/1
f 8/5/1 2/8/1 1/4/1
f 3/6/1 6/7/1 7/1/1
